<?xml version="1.0" encoding="UTF-8"?>
<svg width="758px" height="761px" viewBox="0 0 758 761" version="1.1" xmlns="http://www.w3.org/2000/svg" xmlns:xlink="http://www.w3.org/1999/xlink">
    <title>Rocket.lab</title>
    <defs>
        <path d="M8.04911693e-16,88.9922542 L8.04911693e-16,1.73229683 L20.6793384,1.73229683 L20.6793384,14.7142875 C24.8510717,5.53881302 34.4104147,3.55271368e-15 46.7462865,3.55271368e-15 C49.1791499,3.55271368e-15 51.2689028,0.170961264 53,0.520629616 L53,20.6027689 C50.3955815,20.0821393 47.4402799,19.74077 44.3134232,19.74077 C29.8877983,19.74077 20.6793384,28.7447299 20.6793384,43.1170949 L20.6793384,89 L8.04911693e-16,89 L8.04911693e-16,88.9922542 Z" id="path-1"></path>
        <path d="M0,46.5038957 C0,33.4379271 4.71468402,22.294734 13.9639405,13.4098977 C23.2126394,4.52450481 34.5607807,0 48,0 C61.4392193,0 72.7873606,4.52450481 82.0360595,13.4098977 C91.285316,22.294734 96,33.4379271 96,46.5038957 C96,59.5620729 91.285316,70.7130573 82.0360595,79.5901023 C72.7873606,88.4754952 61.4392193,93 48,93 C34.5607807,93 23.2126394,88.4754952 13.9639405,79.5901023 C4.71468402,70.7130573 0,59.5620729 0,46.5038957 Z M67.3756505,66.1807612 C72.6150557,60.780851 75.230855,54.3341272 75.230855,46.5038957 C75.230855,38.6658728 72.6150557,32.2191491 67.3756505,26.9989947 C62.1362453,21.5990845 55.6828996,18.9890073 48,18.9890073 C40.1447955,18.9890073 33.6914498,21.5990845 28.4520446,26.9989947 C23.3927509,32.2269404 20.769145,38.6658728 20.769145,46.5038957 C20.769145,54.3419185 23.3849442,60.780851 28.4520446,66.1807612 C33.6914498,71.4087069 40.1447955,74.0187841 48,74.0187841 C55.6828996,74.0187841 62.1362453,71.4087069 67.3756505,66.1807612 Z" id="path-3"></path>
        <path d="M76,8.90022977 L76,29.7941229 C68.5214569,22.652348 59.4760867,18.9952071 49.0416855,18.9952071 C40.874183,18.9952071 34.0851549,21.6050657 28.700715,26.8325734 C23.3084965,32.0600811 20.7021186,38.678215 20.7021186,46.5077906 C20.7021186,54.3451569 23.3084965,60.9632907 28.700715,66.1830078 C34.0929335,71.4105155 40.874183,74.0203741 49.0416855,74.0203741 C59.6594388,74.0203741 68.6936967,70.3632333 76,63.2214583 L76,84.1159079 C68.6936967,90.0384505 59.3038469,93 47.8248944,93 C34.2646177,93 22.9573494,88.6478244 13.7414063,79.7631758 C4.52601875,70.8790838 -2.60902411e-15,59.9087743 -2.60902411e-15,46.5 C-2.60902411e-15,33.0917821 4.51768456,22.1209162 13.7414063,13.2368241 C22.9573494,4.35217563 34.2646177,-2.77555756e-16 47.8248944,-2.77555756e-16 C59.1260509,0.015581245 68.5214569,2.97713076 76,8.90022977 Z" id="path-5"></path>
        <polygon id="path-7" points="-2.46070525e-15 116 -2.46070525e-15 -2.44249065e-15 20.7799029 -2.44249065e-15 20.7799029 65.9361895 50.4630877 28.6891839 74.2107513 28.6891839 40.8569151 70.4365188 77 115.99225 52.5550243 115.99225 20.7799029 75.6287806 20.7799029 115.99225 -2.46070525e-15 115.99225"></polygon>
        <path d="M0,45.7433817 C0,32.0531988 4.21699956,20.966847 12.8136223,12.6487612 C21.4158528,4.1590429 32.4742612,0 45.8150085,0 C58.6286308,0 68.9860752,4.1590429 76.8873417,12.6487612 C84.9568395,20.966847 89,31.3611323 89,43.6599847 C89,46.2566182 88.8261609,48.8610029 88.6467141,51.1077276 L20.8887279,51.1077276 C21.5896919,64.9689894 31.9471363,73.8080628 47.5702224,73.8080628 C61.4437024,73.8080628 71.9693781,70.5199164 79.3435196,63.7564888 L79.3435196,83.1609265 C70.7412892,89.0534576 59.8567198,92 46.6954193,92 C32.8275471,92 21.4214605,87.8409571 12.8248378,79.7011476 C4.22260727,71.3825081 0.011215425,60.2967099 0.011215425,46.6065271 L0.011215425,45.7433817 L0,45.7433817 Z M67.5785395,36.3910717 C67.5785395,31.3688834 65.4756474,26.8599317 61.2586479,23.2213228 C57.047256,19.5832676 51.9610611,17.6787006 45.8150085,17.6787006 C39.3156701,17.6787006 33.7023502,19.5832676 28.9694411,23.2213228 C24.2253166,26.8599317 21.7691387,31.1900535 21.4214605,36.3910717 L67.5785395,36.3910717 Z" id="path-9"></path>
        <path d="M0.0056700318,-2.44249065e-15 L21.3023095,-2.44249065e-15 L21.3023095,28.8343608 L41,28.8343608 L41,47.8045692 L21.3023095,47.8045692 L21.3023095,99.3267587 L39.934034,99.3267587 L39.934034,117.953794 C36.9175771,118.648484 33.1923662,119 28.9285023,119 C9.58802379,119 -6.86950496e-16,109.08134 -6.86950496e-16,89.2362341 L-6.86950496e-16,-2.44249065e-15 L0.0056700318,-2.44249065e-15 Z" id="path-11"></path>
        <path d="M12.497229,2.77555756e-16 C5.59742851,2.77555756e-16 -6.66133815e-16,5.5968155 -6.66133815e-16,12.4997216 C-6.66133815e-16,19.4026277 5.59742851,25 12.497229,25 C19.4025715,25 25,19.4026277 25,12.4997216 C25,5.5968155 19.4025715,2.77555756e-16 12.497229,2.77555756e-16 Z" id="path-13"></path>
        <path d="M32.308,164 L32.308,44.28 L9.02,44.28 L9.02,164 L32.308,164 Z M84.952,166.132 C96.268,166.132 105.452,161.048 110.7,152.848 L111.52,164 L133.988,164 L133.988,82 L111.52,82 L110.7,93.152 C105.452,84.952 96.268,79.868 84.952,79.868 C62.648,79.868 46.084,98.4 46.084,123 C46.084,147.764 62.484,166.132 84.952,166.132 Z M90.036,144.484 C77.408,144.484 69.208,135.956 69.208,123 C69.208,110.044 77.408,101.516 90.036,101.516 C102.336,101.516 111.028,109.716 111.028,123 C111.028,136.284 102.336,144.484 90.036,144.484 Z M201.064,166.132 C223.532,166.132 239.932,149.076 239.932,123 C239.932,96.924 223.368,79.868 201.064,79.868 C189.748,79.868 180.564,84.952 175.316,93.316 L175.316,44.28 L152.028,44.28 L152.028,164 L174.496,164 L175.316,152.684 C180.564,161.048 189.748,166.132 201.064,166.132 Z M195.98,144.484 C183.68,144.484 175.316,135.628 175.316,123 C175.316,110.372 183.68,101.516 195.98,101.516 C208.608,101.516 216.644,110.044 216.644,123 C216.644,135.956 208.608,144.484 195.98,144.484 Z" id="path-15"></path>
        <linearGradient x1="30.1285561%" y1="71.0452279%" x2="82.429451%" y2="17.1723624%" id="linearGradient-16">
            <stop stop-color="#00A7FF" offset="0%"></stop>
            <stop stop-color="#F5455C" offset="100%"></stop>
        </linearGradient>
    </defs>
    <g id="Page-1" stroke="none" stroke-width="1" fill="none" fill-rule="evenodd">
        <g id="Rocket.lab" transform="translate(0.000000, 0.598124)">
            <g id="Group" transform="translate(0.000000, 561.733125)">
                <g id="Fill-10-Clipped" transform="translate(0.000000, 75.000000)">
                    <mask id="mask-2" fill="white">
                        <use xlink:href="#path-1"></use>
                    </mask>
                    <g id="path-1"></g>
                    <polygon id="Fill-10" fill="#F5455C" fill-rule="nonzero" mask="url(#mask-2)" points="-1 -1 53 -1 53 89 -1 89"></polygon>
                </g>
                <g id="Fill-13-Clipped" transform="translate(58.000000, 73.000000)">
                    <mask id="mask-4" fill="white">
                        <use xlink:href="#path-3"></use>
                    </mask>
                    <g id="path-3"></g>
                    <polygon id="Fill-13" fill="#F5455C" fill-rule="nonzero" mask="url(#mask-4)" points="-1 2.77555756e-15 96 2.77555756e-15 96 94 -1 94"></polygon>
                </g>
                <g id="Fill-16-Clipped" transform="translate(165.000000, 73.000000)">
                    <mask id="mask-6" fill="white">
                        <use xlink:href="#path-5"></use>
                    </mask>
                    <g id="path-5"></g>
                    <polygon id="Fill-16" fill="#F5455C" fill-rule="nonzero" mask="url(#mask-6)" points="-1 -2.77555756e-16 76 -2.77555756e-16 76 94 -1 94"></polygon>
                </g>
                <g id="Fill-19-Clipped" transform="translate(256.000000, 47.000000)">
                    <mask id="mask-8" fill="white">
                        <use xlink:href="#path-7"></use>
                    </mask>
                    <g id="path-7"></g>
                    <polygon id="Fill-19" fill="#F5455C" fill-rule="nonzero" mask="url(#mask-8)" points="-2.46070525e-15 -2.44249065e-15 77 -2.44249065e-15 77 117 -2.46070525e-15 117"></polygon>
                </g>
                <g id="Fill-22-Clipped" transform="translate(333.000000, 74.000000)">
                    <mask id="mask-10" fill="white">
                        <use xlink:href="#path-9"></use>
                    </mask>
                    <g id="path-9"></g>
                    <polygon id="Fill-22" fill="#F5455C" fill-rule="nonzero" mask="url(#mask-10)" points="-2.63677968e-15 -3.2959746e-15 89 -3.2959746e-15 89 93 -2.63677968e-15 93"></polygon>
                </g>
                <g id="Fill-25-Clipped" transform="translate(437.000000, 47.000000)">
                    <mask id="mask-12" fill="white">
                        <use xlink:href="#path-11"></use>
                    </mask>
                    <g id="path-11"></g>
                    <polygon id="Fill-25" fill="#F5455C" fill-rule="nonzero" mask="url(#mask-12)" points="-1 -2.44249065e-15 41 -2.44249065e-15 41 120 -1 120"></polygon>
                </g>
                <g id="Fill-28-Clipped" transform="translate(485.000000, 141.000000)">
                    <mask id="mask-14" fill="white">
                        <use xlink:href="#path-13"></use>
                    </mask>
                    <g id="path-13"></g>
                    <polygon id="Fill-28" fill="#F5455C" fill-rule="nonzero" mask="url(#mask-14)" points="-6.66133815e-16 -1 26 -1 26 25 -6.66133815e-16 25"></polygon>
                </g>
                <g id="lab" transform="translate(513.000000, 0.000000)" fill-rule="nonzero">
                    <g>
                        <use fill="#000000" xlink:href="#path-15"></use>
                        <use fill="#F5455C" xlink:href="#path-15"></use>
                    </g>
                </g>
            </g>
            <g id="Group-3" transform="translate(379.097717, 317.212369) rotate(-46.000000) translate(-379.097717, -317.212369) translate(154.897717, 92.733125)" fill-rule="nonzero">
                <path d="M150.9,447.8 C131.6,444.7 117.4,440.3 100.9,432.3 C94.3,429.1 87.1,425.4 84.9,424.1 C78.3,420.3 63.4,408.8 55,401.1 C50.6,397.1 46.7,393.9 46.2,394.1 C45.7,394.2 45.5,393.9 45.9,393.3 C46.2,392.7 44.2,389.7 41.4,386.5 C34.1,378.4 23.5,362.2 17.6,350.1 C10.7,336.1 6.2,322.5 2.8,305.8 C0.3,293.2 -2.78383965e-22,289.8 -2.78383965e-22,272.3 C-2.78383965e-22,258.2 0.5,250.2 1.8,243.3 C6.6,216.5 15.6,193.8 29.7,172.8 C31.9,169.5 33.7,166.3 33.7,165.6 C33.7,164.9 34.1,164.6 34.4,164.8 C34.8,165.1 36.8,163.1 38.8,160.5 C40.9,157.9 45.9,152.4 49.9,148.2 C54,144 57,140.2 56.6,139.8 C56.2,139.3 56.4,139.3 57,139.6 C57.7,140 58.8,139.5 59.5,138.6 C61.2,136.6 80,122.3 81,122.3 C81.4,122.3 82.5,121.7 83.3,120.9 C86.2,118.5 101.7,110.6 110.9,107 C130.8,99.1 147,95.8 172.3,94.3 C181.3,93.7 191.7,92.8 195.3,92.2 C214,89.1 238.6,81.1 243.4,76.6 C249.2,71.2 248,64.3 240.1,57 L236,53.2 L261.7,27.5 L287.4,1.8 L311.4,25.8 C324.6,39 335.3,50 335.3,50.3 C335.2,50.6 331.7,54.1 327.4,58.1 L319.7,65.3 L303.4,48.9 L287.1,32.5 L276.3,43.4 L265.5,54.3 L267,57.9 C269.1,62.9 269.1,73.7 267,79.9 C265,86.1 257.4,95.2 252.3,97.6 C239.9,103.5 222.3,109.3 207.5,112.2 C194.9,114.7 190.9,115.2 172.2,116.3 C154.6,117.4 140.3,119.9 126.9,124.4 C117.8,127.5 101.3,135.3 95.1,139.5 C93.2,140.8 89.2,143.4 86.3,145.4 C62.1,161.6 40.1,191.5 30.4,221.3 C24.2,240.3 23,248.7 23,272.3 C23,290.8 23.3,295.2 25.2,304.1 C30.6,328.9 41.9,352.8 56.9,371 C64.6,380.3 74.2,389.5 75.5,388.7 C76.2,388.3 76.5,388.4 76.1,389 C75.2,390.4 84.1,397.6 85.5,396.7 C86.2,396.3 86.4,396.4 86.1,397 C85.3,398.2 87.8,400.6 88.7,399.6 C89.1,399.3 89.4,399.4 89.4,400 C89.4,401.2 99.4,407.3 108.9,412 C121.9,418.5 138,423.5 153.4,425.8 C164.6,427.5 188,427.7 199,426.2 C207,425.1 222.6,421.4 227.9,419.3 C229.6,418.7 231,418.2 231.1,418.2 C231.3,418.2 234.9,416.8 239.2,415 C247.4,411.5 264.5,401.8 267.9,398.6 C269,397.6 271.2,396 272.7,395 C274.2,394 275.2,392.7 274.8,392.1 C274.3,391.4 274.6,391.3 275.4,391.8 C276.8,392.7 296,373.7 301.2,366.3 C313.2,349.1 319.7,336.7 324.8,321.3 C329.8,306.1 331.2,298.2 332.9,276.3 C333.7,265.6 335.1,252.8 335.9,247.8 C340.2,223.5 348.9,198.5 355.6,191.6 C357.4,189.7 358.3,188 357.9,187.2 C357.4,186.5 357.5,186.2 358.1,186.6 C358.7,187 362,185.8 365.4,184.1 C373.1,180.1 382.7,179.2 390,181.7 L394.8,183.3 L398.1,180.1 C399.9,178.4 401,176.5 400.7,175.9 C400.4,175.3 400.5,175.2 400.9,175.6 C401.9,176.4 415.4,163.5 415.4,161.8 C415.4,161.3 408.6,154.1 400.3,145.8 C387.3,132.9 380.8,125.6 384.1,127.6 C385.6,128.5 393.8,119.7 392.9,118.2 C392.3,117.4 392.5,117.2 393.3,117.8 C394,118.2 395.6,117.6 397,116.2 L399.5,113.9 L423.4,137.9 L447.4,161.8 L421.7,187.6 C397.2,212.1 395.9,213.2 394.4,211.4 C391.1,207.2 384.1,202.3 381.5,202.3 C375.3,202.3 372.6,204.2 369.5,210.6 C361.8,227 356.9,248.8 354.9,276.8 C353.2,299.5 350.8,313.1 345.7,328.3 C339.4,347.2 328.3,367.7 316.1,382.8 C305.7,395.7 288.3,411.6 275.9,419.7 C272.6,421.8 268.7,424.4 267.3,425.4 C262.6,428.6 244,437 234.6,440.2 C216.3,446.5 204.2,448.5 180.9,448.9 C166,449.1 157.3,448.8 150.9,447.8 Z" id="Path" fill="#F5455C"></path>
                <path d="M448.4,-2.78383965e-22 L448.4,4.4 C448.4,22.4 438.6,46.1 425.3,60.2 C418,68 417.6,68.8 412.3,83.8 C410,90.4 407.7,96.9 407.2,98.2 L406.3,100.6 L402.3,96.7 L398.4,92.9 L350.6,140.6 L302.9,188.3 L298.6,184 C296.3,181.7 294.4,179.4 294.4,179.1 C294.4,178.712 314.34708,158.47101 339.182136,133.618669 L341.5,131.3 L341.5,131.3 C386.5,86.3 388.6,84.1 387.4,81.8 C386.7,80.6 385.1,78.9 383.8,78.3 C381.5,77 379.1,79.3 318.2,140.1 L255,203.3 L256.8,208.4 C258.2,212.3 258.5,215.1 258.1,220.6 C257.8,224.6 257.3,228.7 256.9,229.9 C256.4,231.6 256.9,232.2 259.3,233.2 C263.1,234.8 271.6,243.7 274.2,248.9 C279.1,258.7 279.6,273 275.4,283 L273.2,288.2 L279.1,294.2 C292.5,307.6 297.2,325.1 292.4,343.7 C289.6,354.7 286.1,360.5 276.1,370.9 C255.9,392 227.6,406.3 197.7,410.7 C187.6,412.1 170.6,412.6 162.9,411.6 C127.2,407 101.1,394.4 77.4,370.4 C53,345.6 40,315.7 37.8,279.3 C36.1,251.8 44.8,218.3 59.6,195.2 C76.9,168.3 96.1,155.2 118.3,155.2 C133.8,155.2 145.2,159.9 155.7,170.6 C161.5,176.6 161.5,176.6 165.2,175.5 C172,173.5 179,173.1 185,174.3 C196.3,176.6 206.3,183.4 210.5,191.6 C211.6,193.6 212.6,195.3 212.8,195.3 C213,195.3 215.7,194.2 218.8,192.8 C226,189.6 234.3,189.5 240.9,192.3 L245.6,194.3 L372.7,67.2 L369.1,63.5 L365.4,59.8 L317.6,107.5 L269.9,155.2 L265.7,151.2 C263.3,149 261.4,146.9 261.4,146.5 C261.4,146.112 281.34708,125.87101 306.090868,101.109936 L308.4,98.8 L308.4,98.8 C334.3,73 355.4,51.4 355.4,50.8 C355.4,50.3 354,48.4 352.4,46.6 C350.7,44.8 349.4,43.2 349.4,42.9 C349.4,42.4 357.5,39.3 372.7,33.9 C379.4,31.5 383.1,29.6 384.5,27.8 C388.1,23.3 402.1,13.3 410.7,9.3 C420,4.8 431.8,1.6 441.7,0.6 L448.4,-2.78383965e-22 Z M129.9,334.7 C127.8,339.8 128.6,344.3 132.2,348.1 C137.2,353.4 142,354.6 148.2,352 C155.6,348.9 158.7,338.9 154.2,332.3 C147.6,322.5 134.2,323.8 129.9,334.7 Z M194.9,307.3 C193.5,307.3 191.3,308.3 189.9,309.5 C183.7,314.9 190.1,324.7 197.9,321.7 C199.6,321 202.4,316.3 202.4,313.9 C202.4,311.5 197.6,307.3 194.9,307.3 Z M103.3,234 C86.5,243.4 83.5,265.5 97.2,278.8 C104.8,286.2 117.2,288.1 127.5,283.6 C141,277.6 147.4,260.3 141,246.8 C134.5,232.7 116.5,226.6 103.3,234 Z M222.9,274.9 C223.2,276.8 223.9,278.3 224.4,278.3 C225,278.3 225.4,278.9 225.4,279.6 C225.4,281.4 230.4,284.2 233.7,284.3 C235.3,284.3 237.5,283.8 238.7,283.2 C247,278.7 247.6,267.4 239.6,263.1 C231.4,258.8 221.2,266 222.9,274.9 Z M175.9,249.7 C171.8,254 171,258.2 173,263.3 C175.8,270.3 184.5,273.4 191.4,269.8 C198.8,266 199.7,254.1 193.1,249 C187.4,244.7 180.4,245 175.9,249.7 Z M402.2,33.5 C402.4,44.2 414.9,50.8 423.3,44.6 C432.1,37.9 431.7,26.1 422.4,21.2 C412.9,16 402.1,22.6 402.2,33.5 Z" id="Shape" fill="url(#linearGradient-16)"></path>
                <path d="M425,30.9 C424.3,28.2 420.7,25.5 416.6,24.7 C413.3,24.1 407.7,27.3 406.4,30.6 C405.6,32.6 405.5,32.6 405.5,30.8 C405.4,26.5 410.9,22.3 416.8,22.3 C421,22.3 426.4,27.1 426.4,30.9 C426.4,34 425.8,34 425,30.9 Z" id="Path" fill="#000000"></path>
                <path d="M310.6,231.3 C303.6,226.9 302.8,217.7 308.9,211.6 C311.7,208.8 312.9,208.3 316.9,208.3 C321.9,208.3 324.9,209.5 327.6,212.6 C331.6,217.1 330.7,225.8 325.9,230.3 C322.4,233.6 315,234.1 310.6,231.3 Z" id="Path" fill="#6D1AC0"></path>
                <path d="M273,226.7 C270.8,224.5 271,219.7 273.4,217.3 C275.8,214.9 280.6,214.7 282.8,216.9 C283.7,217.7 284.4,220 284.4,221.8 C284.4,223.6 283.7,225.9 282.8,226.7 C282,227.6 279.7,228.3 277.9,228.3 C276.1,228.3 273.8,227.6 273,226.7 Z" id="Path" fill="#6D1AC0"></path>
                <path d="M215.9,162.6 C210.2,161.2 207.3,154.4 210,148.8 C213.3,141.8 223.4,141.6 227,148.4 C228.9,152.1 228.8,154.9 226.7,158.4 C225.3,160.8 220.5,163.6 218.5,163.2 C218.2,163.1 217,162.9 215.9,162.6 Z" id="Path" fill="#6D1AC0"></path>
            </g>
        </g>
    </g>
</svg>